<svg xmlns="http://www.w3.org/2000/svg" xmlns:xlink="http://www.w3.org/1999/xlink" contentStyleType="text/css" data-diagram-type="SEQUENCE" height="561px" preserveAspectRatio="none" style="width:1158px;height:561px;background:#FFFFFF;" version="1.1" viewBox="0 0 1158 561" width="1158px" zoomAndPan="magnify"><defs/><g><rect fill="#FFFFFF" fill-opacity="0.00000" height="148.4688" style="stroke:#000000;stroke-width:1.5;" width="1000.5571" x="150.7144" y="315.2266"/><g><title>User</title><rect fill="#FFFFFF" fill-opacity="0.00000" height="399.3984" width="8" x="19.9551" y="81.2969"/><line style="stroke:#181818;stroke-width:0.5;stroke-dasharray:5.0,5.0;" x1="23" x2="23" y1="81.2969" y2="480.6953"/></g><g><title>Mobile App</title><rect fill="#FFFFFF" fill-opacity="0.00000" height="399.3984" width="8" x="202.5767" y="81.2969"/><line style="stroke:#181818;stroke-width:0.5;stroke-dasharray:5.0,5.0;" x1="205.7144" x2="205.7144" y1="81.2969" y2="480.6953"/></g><g><title>Central Server/Backend</title><rect fill="#FFFFFF" fill-opacity="0.00000" height="399.3984" width="8" x="438.7852" y="81.2969"/><line style="stroke:#181818;stroke-width:0.5;stroke-dasharray:5.0,5.0;" x1="442.5781" x2="442.5781" y1="81.2969" y2="480.6953"/></g><g><title>Embedded Device</title><rect fill="#FFFFFF" fill-opacity="0.00000" height="399.3984" width="8" x="715.0791" y="81.2969"/><line style="stroke:#181818;stroke-width:0.5;stroke-dasharray:5.0,5.0;" x1="718.2861" x2="718.2861" y1="81.2969" y2="480.6953"/></g><g><title>Door Lock Mechanism</title><rect fill="#FFFFFF" fill-opacity="0.00000" height="399.3984" width="8" x="880.0088" y="81.2969"/><line style="stroke:#181818;stroke-width:0.5;stroke-dasharray:5.0,5.0;" x1="883.8721" x2="883.8721" y1="81.2969" y2="480.6953"/></g><g><title>Access Log Database</title><rect fill="#FFFFFF" fill-opacity="0.00000" height="399.3984" width="8" x="1055.7085" y="81.2969"/><line style="stroke:#181818;stroke-width:0.5;stroke-dasharray:5.0,5.0;" x1="1059.1455" x2="1059.1455" y1="81.2969" y2="480.6953"/></g><g><text fill="#000000" font-family="sans-serif" font-size="14" lengthAdjust="spacing" textLength="31.9102" x="5" y="77.9951">User</text><ellipse cx="23.9551" cy="13.5" fill="#E2E2F0" rx="8" ry="8" style="stroke:#181818;stroke-width:0.5;"/><path d="M23.9551,21.5 L23.9551,48.5 M10.9551,29.5 L36.9551,29.5 M23.9551,48.5 L10.9551,63.5 M23.9551,48.5 L36.9551,63.5 " fill="#FFFFFF" fill-opacity="0.00000" style="stroke:#181818;stroke-width:0.5;"/></g><g><text fill="#000000" font-family="sans-serif" font-size="14" lengthAdjust="spacing" textLength="31.9102" x="5" y="492.6904">User</text><ellipse cx="23.9551" cy="504.4922" fill="#E2E2F0" rx="8" ry="8" style="stroke:#181818;stroke-width:0.5;"/><path d="M23.9551,512.4922 L23.9551,539.4922 M10.9551,520.4922 L36.9551,520.4922 M23.9551,539.4922 L10.9551,554.4922 M23.9551,539.4922 L36.9551,554.4922 " fill="#FFFFFF" fill-opacity="0.00000" style="stroke:#181818;stroke-width:0.5;"/></g><g><rect fill="#E2E2F0" height="30.2969" rx="2.5" ry="2.5" style="stroke:#181818;stroke-width:0.5;" width="91.7246" x="160.7144" y="50"/><text fill="#000000" font-family="sans-serif" font-size="14" lengthAdjust="spacing" textLength="77.7246" x="167.7144" y="69.9951">Mobile App</text></g><g><rect fill="#E2E2F0" height="30.2969" rx="2.5" ry="2.5" style="stroke:#181818;stroke-width:0.5;" width="91.7246" x="160.7144" y="479.6953"/><text fill="#000000" font-family="sans-serif" font-size="14" lengthAdjust="spacing" textLength="77.7246" x="167.7144" y="499.6904">Mobile App</text></g><g><rect fill="#E2E2F0" height="30.2969" rx="2.5" ry="2.5" style="stroke:#181818;stroke-width:0.5;" width="180.4141" x="352.5781" y="50"/><text fill="#000000" font-family="sans-serif" font-size="14" lengthAdjust="spacing" textLength="166.4141" x="359.5781" y="69.9951">Central Server/Backend</text></g><g><rect fill="#E2E2F0" height="30.2969" rx="2.5" ry="2.5" style="stroke:#181818;stroke-width:0.5;" width="180.4141" x="352.5781" y="479.6953"/><text fill="#000000" font-family="sans-serif" font-size="14" lengthAdjust="spacing" textLength="166.4141" x="359.5781" y="499.6904">Central Server/Backend</text></g><g><rect fill="#E2E2F0" height="46.5938" rx="2.5" ry="2.5" style="stroke:#181818;stroke-width:0.5;" width="141.5859" x="648.2861" y="33.7031"/><text fill="#000000" font-family="sans-serif" font-size="14" lengthAdjust="spacing" textLength="127.5859" x="655.2861" y="53.6982">Embedded Device</text><text fill="#000000" font-family="sans-serif" font-size="14" lengthAdjust="spacing" textLength="121.1533" x="658.5024" y="69.9951">(E-Paper Display)</text></g><g><rect fill="#E2E2F0" height="46.5938" rx="2.5" ry="2.5" style="stroke:#181818;stroke-width:0.5;" width="141.5859" x="648.2861" y="479.6953"/><text fill="#000000" font-family="sans-serif" font-size="14" lengthAdjust="spacing" textLength="127.5859" x="655.2861" y="499.6904">Embedded Device</text><text fill="#000000" font-family="sans-serif" font-size="14" lengthAdjust="spacing" textLength="121.1533" x="658.5024" y="515.9873">(E-Paper Display)</text></g><g><rect fill="#E2E2F0" height="30.2969" rx="2.5" ry="2.5" style="stroke:#181818;stroke-width:0.5;" width="168.2734" x="799.8721" y="50"/><text fill="#000000" font-family="sans-serif" font-size="14" lengthAdjust="spacing" textLength="154.2734" x="806.8721" y="69.9951">Door Lock Mechanism</text></g><g><rect fill="#E2E2F0" height="30.2969" rx="2.5" ry="2.5" style="stroke:#181818;stroke-width:0.5;" width="168.2734" x="799.8721" y="479.6953"/><text fill="#000000" font-family="sans-serif" font-size="14" lengthAdjust="spacing" textLength="154.2734" x="806.8721" y="499.6904">Door Lock Mechanism</text></g><g><rect fill="#E2E2F0" height="30.2969" rx="2.5" ry="2.5" style="stroke:#181818;stroke-width:0.5;" width="163.126" x="978.1455" y="50"/><text fill="#000000" font-family="sans-serif" font-size="14" lengthAdjust="spacing" textLength="149.126" x="985.1455" y="69.9951">Access Log Database</text></g><g><rect fill="#E2E2F0" height="30.2969" rx="2.5" ry="2.5" style="stroke:#181818;stroke-width:0.5;" width="163.126" x="978.1455" y="479.6953"/><text fill="#000000" font-family="sans-serif" font-size="14" lengthAdjust="spacing" textLength="149.126" x="985.1455" y="499.6904">Access Log Database</text></g><g><polygon fill="#181818" points="194.5767,108.4297,204.5767,112.4297,194.5767,116.4297,198.5767,112.4297" style="stroke:#181818;stroke-width:1;"/><line style="stroke:#181818;stroke-width:1;" x1="23.9551" x2="200.5767" y1="112.4297" y2="112.4297"/><text fill="#000000" font-family="sans-serif" font-size="13" lengthAdjust="spacing" textLength="130.3682" x="30.9551" y="107.3638">Scan initial QR code</text></g><g><polygon fill="#181818" points="430.7852,137.5625,440.7852,141.5625,430.7852,145.5625,434.7852,141.5625" style="stroke:#181818;stroke-width:1;"/><line style="stroke:#181818;stroke-width:1;" x1="206.5767" x2="436.7852" y1="141.5625" y2="141.5625"/><text fill="#000000" font-family="sans-serif" font-size="13" lengthAdjust="spacing" textLength="212.2085" x="213.5767" y="136.4966">Send initial authentication token</text></g><g><polygon fill="#181818" points="707.0791,166.6953,717.0791,170.6953,707.0791,174.6953,711.0791,170.6953" style="stroke:#181818;stroke-width:1;"/><line style="stroke:#181818;stroke-width:1;" x1="442.7852" x2="713.0791" y1="170.6953" y2="170.6953"/><text fill="#000000" font-family="sans-serif" font-size="13" lengthAdjust="spacing" textLength="252.2939" x="449.7852" y="165.6294">Generate &amp; display validation QR code</text></g><g><polygon fill="#181818" points="217.5767,195.8281,207.5767,199.8281,217.5767,203.8281,213.5767,199.8281" style="stroke:#181818;stroke-width:1;"/><line style="stroke:#181818;stroke-width:1;" x1="211.5767" x2="718.0791" y1="199.8281" y2="199.8281"/><text fill="#000000" font-family="sans-serif" font-size="13" lengthAdjust="spacing" textLength="256.1025" x="223.5767" y="194.7622">Update display with validation QR code</text></g><g><polygon fill="#181818" points="194.5767,224.9609,204.5767,228.9609,194.5767,232.9609,198.5767,228.9609" style="stroke:#181818;stroke-width:1;"/><line style="stroke:#181818;stroke-width:1;" x1="23.9551" x2="200.5767" y1="228.9609" y2="228.9609"/><text fill="#000000" font-family="sans-serif" font-size="13" lengthAdjust="spacing" textLength="158.6216" x="30.9551" y="223.895">Scan validation QR code</text></g><g><polygon fill="#181818" points="430.7852,254.0938,440.7852,258.0938,430.7852,262.0938,434.7852,258.0938" style="stroke:#181818;stroke-width:1;"/><line style="stroke:#181818;stroke-width:1;" x1="206.5767" x2="436.7852" y1="258.0938" y2="258.0938"/><text fill="#000000" font-family="sans-serif" font-size="13" lengthAdjust="spacing" textLength="141.8257" x="213.5767" y="253.0278">Send validation token</text></g><g><line style="stroke:#181818;stroke-width:1;" x1="442.7852" x2="484.7852" y1="287.2266" y2="287.2266"/><line style="stroke:#181818;stroke-width:1;" x1="484.7852" x2="484.7852" y1="287.2266" y2="300.2266"/><line style="stroke:#181818;stroke-width:1;" x1="443.7852" x2="484.7852" y1="300.2266" y2="300.2266"/><polygon fill="#181818" points="453.7852,296.2266,443.7852,300.2266,453.7852,304.2266,449.7852,300.2266" style="stroke:#181818;stroke-width:1;"/><text fill="#000000" font-family="sans-serif" font-size="13" lengthAdjust="spacing" textLength="94.3452" x="449.7852" y="282.1606">Validate token</text></g><path d="M150.7144,315.2266 L215.1572,315.2266 L215.1572,322.3594 L205.1572,332.3594 L150.7144,332.3594 L150.7144,315.2266 " fill="#EEEEEE" style="stroke:#000000;stroke-width:1.5;"/><rect fill="#FFFFFF" fill-opacity="0.00000" height="148.4688" style="stroke:#000000;stroke-width:1.5;" width="1000.5571" x="150.7144" y="315.2266"/><text fill="#000000" font-family="sans-serif" font-size="13" font-weight="bold" lengthAdjust="spacing" textLength="19.4429" x="165.7144" y="328.2935">alt</text><text fill="#000000" font-family="sans-serif" font-size="11" font-weight="bold" lengthAdjust="spacing" textLength="81.5601" x="230.1572" y="327.437">[Token valid]</text><g><polygon fill="#181818" points="707.0791,349.4922,717.0791,353.4922,707.0791,357.4922,711.0791,353.4922" style="stroke:#181818;stroke-width:1;"/><line style="stroke:#181818;stroke-width:1;" x1="442.7852" x2="713.0791" y1="353.4922" y2="353.4922"/><text fill="#000000" font-family="sans-serif" font-size="13" lengthAdjust="spacing" textLength="148.6113" x="449.7852" y="348.4263">Send unlock command</text></g><g><polygon fill="#181818" points="872.0088,378.625,882.0088,382.625,872.0088,386.625,876.0088,382.625" style="stroke:#181818;stroke-width:1;"/><line style="stroke:#181818;stroke-width:1;" x1="719.0791" x2="878.0088" y1="382.625" y2="382.625"/><text fill="#000000" font-family="sans-serif" font-size="13" lengthAdjust="spacing" textLength="127.2324" x="726.0791" y="377.5591">Trigger door unlock</text></g><g><polygon fill="#181818" points="1047.7085,407.7578,1057.7085,411.7578,1047.7085,415.7578,1051.7085,411.7578" style="stroke:#181818;stroke-width:1;"/><line style="stroke:#181818;stroke-width:1;" x1="442.7852" x2="1053.7085" y1="411.7578" y2="411.7578"/><text fill="#000000" font-family="sans-serif" font-size="13" lengthAdjust="spacing" textLength="112.5439" x="449.7852" y="406.6919">Log access event</text></g><line style="stroke:#000000;stroke-width:1;stroke-dasharray:2.0,2.0;" x1="150.7144" x2="1151.2715" y1="420.7578" y2="420.7578"/><text fill="#000000" font-family="sans-serif" font-size="11" font-weight="bold" lengthAdjust="spacing" textLength="93.1616" x="155.7144" y="430.9683">[Token invalid]</text><g><polygon fill="#181818" points="217.5767,451.6953,207.5767,455.6953,217.5767,459.6953,213.5767,455.6953" style="stroke:#181818;stroke-width:1;"/><line style="stroke:#181818;stroke-width:1;" x1="211.5767" x2="441.7852" y1="455.6953" y2="455.6953"/><text fill="#000000" font-family="sans-serif" font-size="13" lengthAdjust="spacing" textLength="142.6255" x="223.5767" y="450.6294">Return error message</text></g><!--SRC=[RP4_JyCm4CLtVufJ1_uC4Ni7f107baH0qpAnNErJQZLn8ji9ujjZnsbBe9kbzxjtx_bGkCx0pf9XFHgdXEfHErYLtLur16dVhm0jbEbIpaWxWmrKP4Oo3qyeZgJbX6RL4itRFKb94ZYDIj2dlikJD-p905UsR_3xVXhB-NACTpvNqOaZb2GEg9Lj9uuNIouLWgprP0qS7UxHqiIb1MEta2G9F2jZ7LG2DTn0EhY3pwu4EjNfeBDG7f97tt4TAQMLKxxS-mP49ucLQP2poik-v5d6fPNh_1Umh0fipjVmGfeCEl9BPImA8pPAHlhaFMVyk2YLetxAbVDJgbqlWz79vakvmpMlVqMkC7-w_29Y_lzvNWSdkfQcIB5Tc9u1ciUmSR0Dh-Z802uVCIqQT1DkwPrQr46FxNYnXgrHTUsJot3no9tdKw-7qsAyCet-mnarbkPjIY_tXUeRSeFHGCPulzQFOKtCP_W1]--></g></svg>